<?xml version="1.0" encoding="UTF-8"?>
<svg height="600" width="800" xmlns="http://www.w3.org/2000/svg" xmlns:xlink="http://www.w3.org/1999/xlink">
    <g id="Notes" font-family="LucidaGrande, 'Lucida Grande', sans-serif" font-size="13">
        <rect fill="white" height="600.0" width="800.0" x="0.0" y="0.0" />
        <g font-size="13">
            <text x="18.0" y="176.0">Small</text>
            <text x="18.0" y="376.0">Medium</text>
            <text x="18.0" y="576.0">Large</text>
        </g>
        <g font-size="9">
            <text x="250.0" y="30.0">Ultralight</text>
            <text x="450.0" y="30.0">Regular</text>
            <text x="650.0" y="30.0">Black</text>
            <text id="template-version" fill="#505050" text-anchor="end" x="785.0" y="575.0">Template v.3.0</text>
            <a href="https://github.com/swhitty/SwiftDraw">
                <text fill="#505050" text-anchor="end" x="785.0" y="590.0">https://github.com/swhitty/SwiftDraw</text>
            </a>
        </g>
    </g>
    <g id="Guides" stroke="rgb(39, 170, 225)" stroke-width="0.5">
        <path id="Capline-S" d="M18,76 l800,0" />
        <path id="H-reference" d="M85,145.755 L87.685,145.755 L113.369,79.287 L114.052,79.287 L114.052,76 L112.148,76 L85,145.755 Z M95.693,121.536 L130.996,121.536 L130.263,119.313 L96.474,119.313 L95.693,121.536 Z M139.15,145.755 L141.787,145.755 L114.638,76 L113.466,76 L113.466,79.287 L139.15,145.755 Z" stroke="none" transform="translate(0,0)" />
        <path id="Baseline-S" d="M18,146 l800,0" />
        <path id="left-margin-Ultralight-S" d="M232.661,56 l0,110" />
        <path id="right-margin-Ultralight-S" d="M297.339,56 l0,110" />
        <path id="left-margin-Regular-S" d="M432.661,56 l0,110" />
        <path id="right-margin-Regular-S" d="M497.339,56 l0,110" />
        <path id="left-margin-Black-S" d="M632.661,56 l0,110" />
        <path id="right-margin-Black-S" d="M697.339,56 l0,110" />
        <path id="Capline-M" d="M18,276 l800,0" />
        <path id="Baseline-M" d="M18,346 l800,0" />
        <path id="Capline-L" d="M18,476 l800,0" />
        <path id="Baseline-L" d="M18,546 l800,0" />
    </g>
    <g id="Symbols">
        <g id="Ultralight-S" transform="translate(0,0)">
            <path d="M266.268,108.802 L238.156,92.571 C236.465,91.595 234.352,92.815 234.352,94.767 L234.352,127.229 C234.352,128.135 234.835,128.972 235.62,129.425 L263.732,145.656 C265.423,146.633 267.536,145.412 267.536,143.46 L267.536,110.998 C267.536,110.092 267.053,109.255 266.268,108.802 Z M263.732,113.194 L262.464,110.998 L262.464,143.46 L266.268,141.264 L238.156,125.033 L239.424,127.229 L239.424,94.767 L235.62,96.963 L263.732,113.194 Z" />
            <path d="M266.268,113.194 L294.38,96.963 L290.576,94.767 L290.576,127.229 L291.844,125.033 L263.732,141.264 L267.536,143.46 L267.536,110.998 L266.268,113.194 Z M263.732,108.802 C262.947,109.255 262.464,110.092 262.464,110.998 L262.464,143.46 C262.464,145.412 264.577,146.633 266.268,145.656 L294.38,129.425 C295.165,128.972 295.648,128.135 295.648,127.229 L295.648,94.767 C295.648,92.815 293.535,91.595 291.844,92.571 L263.732,108.802 Z" />
            <path d="M263.732,76.34 L235.62,92.571 C233.929,93.547 233.929,95.987 235.62,96.963 L263.732,113.194 C264.517,113.647 265.483,113.647 266.268,113.194 L294.38,96.963 C296.071,95.987 296.071,93.547 294.38,92.571 L266.268,76.34 C265.483,75.887 264.517,75.887 263.732,76.34 Z M266.268,80.732 L263.732,80.732 L291.844,96.963 L291.844,92.571 L263.732,108.802 L266.268,108.802 L238.156,92.571 L238.156,96.963 L266.268,80.732 Z" />
            <path d="M266.757,85.637 L280.813,93.753 L263.243,103.897 L249.187,95.782 Z M266.757,89.695 L256.215,95.782 L263.243,99.839 L273.785,93.753 Z" />
        </g>
        <g id="Regular-S" transform="translate(0,0)">
            <path d="M466.268,108.802 L438.156,92.571 C436.465,91.595 434.352,92.815 434.352,94.767 L434.352,127.229 C434.352,128.135 434.835,128.972 435.62,129.425 L463.732,145.656 C465.423,146.633 467.536,145.412 467.536,143.46 L467.536,110.998 C467.536,110.092 467.053,109.255 466.268,108.802 Z M463.732,113.194 L462.464,110.998 L462.464,143.46 L466.268,141.264 L438.156,125.033 L439.424,127.229 L439.424,94.767 L435.62,96.963 L463.732,113.194 Z" />
            <path d="M466.268,113.194 L494.38,96.963 L490.576,94.767 L490.576,127.229 L491.844,125.033 L463.732,141.264 L467.536,143.46 L467.536,110.998 L466.268,113.194 Z M463.732,108.802 C462.947,109.255 462.464,110.092 462.464,110.998 L462.464,143.46 C462.464,145.412 464.577,146.633 466.268,145.656 L494.38,129.425 C495.165,128.972 495.648,128.135 495.648,127.229 L495.648,94.767 C495.648,92.815 493.535,91.595 491.844,92.571 L463.732,108.802 Z" />
            <path d="M463.732,76.34 L435.62,92.571 C433.929,93.547 433.929,95.987 435.62,96.963 L463.732,113.194 C464.517,113.647 465.483,113.647 466.268,113.194 L494.38,96.963 C496.071,95.987 496.071,93.547 494.38,92.571 L466.268,76.34 C465.483,75.887 464.517,75.887 463.732,76.34 Z M466.268,80.732 L463.732,80.732 L491.844,96.963 L491.844,92.571 L463.732,108.802 L466.268,108.802 L438.156,92.571 L438.156,96.963 L466.268,80.732 Z" />
            <path d="M466.757,85.637 L480.813,93.753 L463.243,103.897 L449.187,95.782 Z M466.757,89.695 L456.215,95.782 L463.243,99.839 L473.785,93.753 Z" />
        </g>
        <g id="Black-S" transform="translate(0,0)">
            <path d="M666.268,108.802 L638.156,92.571 C636.465,91.595 634.352,92.815 634.352,94.767 L634.352,127.229 C634.352,128.135 634.835,128.972 635.62,129.425 L663.732,145.656 C665.423,146.633 667.536,145.412 667.536,143.46 L667.536,110.998 C667.536,110.092 667.053,109.255 666.268,108.802 Z M663.732,113.194 L662.464,110.998 L662.464,143.46 L666.268,141.264 L638.156,125.033 L639.424,127.229 L639.424,94.767 L635.62,96.963 L663.732,113.194 Z" />
            <path d="M666.268,113.194 L694.38,96.963 L690.576,94.767 L690.576,127.229 L691.844,125.033 L663.732,141.264 L667.536,143.46 L667.536,110.998 L666.268,113.194 Z M663.732,108.802 C662.947,109.255 662.464,110.092 662.464,110.998 L662.464,143.46 C662.464,145.412 664.577,146.633 666.268,145.656 L694.38,129.425 C695.165,128.972 695.648,128.135 695.648,127.229 L695.648,94.767 C695.648,92.815 693.535,91.595 691.844,92.571 L663.732,108.802 Z" />
            <path d="M663.732,76.34 L635.62,92.571 C633.929,93.547 633.929,95.987 635.62,96.963 L663.732,113.194 C664.517,113.647 665.483,113.647 666.268,113.194 L694.38,96.963 C696.071,95.987 696.071,93.547 694.38,92.571 L666.268,76.34 C665.483,75.887 664.517,75.887 663.732,76.34 Z M666.268,80.732 L663.732,80.732 L691.844,96.963 L691.844,92.571 L663.732,108.802 L666.268,108.802 L638.156,92.571 L638.156,96.963 L666.268,80.732 Z" />
            <path d="M666.757,85.637 L680.813,93.753 L663.243,103.897 L649.187,95.782 Z M666.757,89.695 L656.215,95.782 L663.243,99.839 L673.785,93.753 Z" />
        </g>
    </g>
</svg>